<svg xmlns="http://www.w3.org/2000/svg" width="400" height="300" viewBox="0 0 400 300" fill="none">
  <!-- Background -->
  <rect x="50" y="50" width="300" height="200" rx="10" fill="#f0f9ff" />
  
  <!-- Shelves -->
  <rect x="80" y="80" width="240" height="20" fill="#0284c7" />
  <rect x="80" y="140" width="240" height="20" fill="#0284c7" />
  <rect x="80" y="200" width="240" height="20" fill="#0284c7" />
  
  <!-- Support Beams -->
  <rect x="90" y="80" width="10" height="140" fill="#075985" />
  <rect x="300" y="80" width="10" height="140" fill="#075985" />
  
  <!-- Products on Shelves -->
  <rect x="110" y="50" width="30" height="30" fill="#7dd3fc" />
  <rect x="150" y="50" width="30" height="30" fill="#0ea5e9" />
  <rect x="190" y="50" width="30" height="30" fill="#7dd3fc" />
  <rect x="230" y="50" width="30" height="30" fill="#0ea5e9" />
  <rect x="270" y="50" width="30" height="30" fill="#7dd3fc" />
  
  <rect x="110" y="110" width="30" height="30" fill="#0ea5e9" />
  <rect x="150" y="110" width="30" height="30" fill="#7dd3fc" />
  <rect x="230" y="110" width="30" height="30" fill="#0ea5e9" />
  <rect x="270" y="110" width="30" height="30" fill="#7dd3fc" />
  
  <rect x="110" y="170" width="30" height="30" fill="#7dd3fc" />
  <rect x="190" y="170" width="30" height="30" fill="#0ea5e9" />
  <rect x="270" y="170" width="30" height="30" fill="#7dd3fc" />
  
  <!-- Inventory Count Indicators -->
  <circle cx="125" y="65" r="8" fill="white" />
  <circle cx="165" y="65" r="8" fill="white" />
  <circle cx="205" y="65" r="8" fill="white" />
  <circle cx="245" y="65" r="8" fill="white" />
  <circle cx="285" y="65" r="8" fill="white" />
</svg>