<svg xmlns="http://www.w3.org/2000/svg" width="400" height="300" viewBox="0 0 400 300" fill="none">
  <!-- Background -->
  <rect x="50" y="50" width="300" height="200" rx="10" fill="#f0f9ff" />
  
  <!-- Device -->
  <rect x="80" y="100" width="120" height="80" rx="5" fill="#0284c7" />
  <rect x="90" y="110" width="100" height="60" rx="2" fill="#bae6fd" />
  
  <!-- Offline Symbol -->
  <circle cx="140" y="140" r="20" fill="white" stroke="#075985" stroke-width="2" />
  <line x1="125" y1="140" x2="155" y2="140" stroke="#075985" stroke-width="2" />
  
  <!-- Invoice -->
  <rect x="230" y="90" width="100" height="120" fill="white" stroke="#0284c7" stroke-width="2" />
  <line x1="240" y1="110" x2="320" y2="110" stroke="#0284c7" stroke-width="1" />
  <line x1="240" y1="130" x2="320" y2="130" stroke="#0284c7" stroke-width="1" />
  <line x1="240" y1="150" x2="320" y2="150" stroke="#0284c7" stroke-width="1" />
  <line x1="240" y1="170" x2="320" y2="170" stroke="#0284c7" stroke-width="1" />
  
  <!-- Connection Arrow -->
  <path d="M200 140 L 230 140" stroke="#0ea5e9" stroke-width="2" />
  <path d="M225 135 L 230 140 L 225 145" stroke="#0ea5e9" stroke-width="2" />
  
  <!-- Invoice Header -->
  <rect x="240" y="95" width="80" height="10" fill="#7dd3fc" />
  
  <!-- Total Section -->
  <rect x="280" y="180" width="40" height="20" fill="#0ea5e9" />
</svg>